<svg width="60" height="48" viewBox="0 0 60 48" fill="none" xmlns="http://www.w3.org/2000/svg">
<g filter="url(#filter0_d)">
<path d="M48.202 32.935C48.202 35.7952 46.4685 38.1353 44.3018 38.1353C42.135 38.1353 40.4016 35.7952 40.4016 32.935C40.4016 30.0749 42.135 27.7347 44.3018 27.7347C46.4685 27.7347 48.202 30.0749 48.202 32.935Z" fill="#FECC00"/>
<path d="M17.0878 32.935C17.0878 35.7952 15.3543 38.1353 13.1876 38.1353C11.0208 38.1353 9.28735 35.7952 9.28735 32.935C9.28735 30.0749 11.0208 27.7347 13.1876 27.7347C15.3543 27.7347 17.0878 30.0749 17.0878 32.935Z" fill="#FECC00"/>
<path d="M54.2691 16.4674H49.0688L41.875 8.49362C41.5283 8.06022 40.9216 7.80021 40.4015 7.80021H30.8676V3.37996C30.8676 1.99325 29.7409 0.866455 28.3541 0.866455H9.97994C8.59323 0.866455 7.46643 1.99315 7.46643 3.37996V22.5344H30.8677V32.935H40.4016C40.4016 30.0748 42.7418 27.7347 45.6019 27.7347C48.4621 27.7347 50.8022 30.0748 50.8022 32.935H54.009C54.6157 32.935 55.1357 32.4149 55.1357 31.8083V18.1142C55.1358 17.5941 54.6158 16.8141 54.2691 16.4674Z" fill="#FED100"/>
<path d="M31.7349 23.4013H4V3.38019C4 1.47345 5.47345 0 7.38019 0H28.4414C30.2615 0 31.7349 1.47345 31.7349 3.38019V23.4013ZM5.73346 21.6678H30.0014V3.38019C30.0014 2.51351 29.308 1.73346 28.3547 1.73346H7.38019C6.42677 1.73346 5.73346 2.42687 5.73346 3.38019V21.6678Z" fill="#333333"/>
<path d="M45.6019 39.0021C42.2218 39.0021 39.535 36.3153 39.535 32.9351C39.535 29.5549 42.2218 26.8682 45.6019 26.8682C48.9821 26.8682 51.6689 29.5549 51.6689 32.9351C51.6689 36.3153 48.9821 39.0021 45.6019 39.0021ZM45.6019 28.6015C43.1752 28.6015 41.2683 30.5083 41.2683 32.9351C41.2683 35.362 43.1751 37.2687 45.6019 37.2687C48.0287 37.2687 49.9356 35.362 49.9356 32.9351C49.9356 30.5083 48.0287 28.6015 45.6019 28.6015Z" fill="#333333"/>
<path d="M14.401 39.0021C11.0208 39.0021 8.33405 36.3153 8.33405 32.9351C8.33405 29.5549 11.0208 26.8682 14.401 26.8682C17.7812 26.8682 20.468 29.5549 20.468 32.9351C20.468 36.3153 17.7812 39.0021 14.401 39.0021ZM14.401 28.6015C11.9742 28.6015 10.0674 30.5083 10.0674 32.9351C10.0674 35.362 11.9741 37.2687 14.401 37.2687C16.8279 37.2687 18.7346 35.362 18.7346 32.9351C18.7346 30.5083 16.8278 28.6015 14.401 28.6015Z" fill="#333333"/>
<path d="M54.7032 23.4013H39.969C39.449 23.4013 39.1024 23.0547 39.1024 22.5346C39.1024 22.0146 39.449 21.668 39.969 21.668H54.7032C55.2233 21.668 55.5699 22.0146 55.5699 22.5346C55.5699 23.0546 55.2233 23.4013 54.7032 23.4013Z" fill="#333333"/>
<path d="M17.8674 15.6008H4.86668C4.34665 15.6008 4 15.2541 4 14.7341C4 14.2141 4.34665 13.8674 4.86668 13.8674H17.8674C18.3874 13.8674 18.7341 14.2141 18.7341 14.7341C18.7342 15.254 18.3874 15.6008 17.8674 15.6008Z" fill="#333333"/>
<path d="M14.4006 11.2671H4.86668C4.34665 11.2671 4 10.9204 4 10.4004C4 9.88034 4.34665 9.53369 4.86668 9.53369H14.4006C14.9206 9.53369 15.2673 9.88034 15.2673 10.4004C15.2673 10.9204 14.9206 11.2671 14.4006 11.2671Z" fill="#333333"/>
<path d="M53.2292 33.8019H49.9357V32.9353C49.9357 30.5085 48.0289 28.6017 45.6021 28.6017C43.1753 28.6017 41.2684 30.5084 41.2684 32.9353V33.8019H30.0013V6.93372H40.6619C41.8753 6.93372 42.9154 7.45375 43.6954 8.40717L49.4157 15.6009L49.5024 15.6876H53.1426C54.7027 15.6876 55.9161 16.9876 55.9161 18.4611V31.0284C56.0027 32.5019 54.7027 33.8019 53.2292 33.8019ZM51.5825 32.0685H53.1426C53.7492 32.0685 54.1826 31.5485 54.1826 30.9418V18.4611C54.1826 17.8544 53.6626 17.421 53.1426 17.421H49.5024C48.8957 17.421 48.3757 17.161 48.0289 16.7276L42.3086 9.53386C41.962 8.92719 41.3552 8.66718 40.6619 8.66718H31.7347V32.0685H39.6218C40.0552 29.1217 42.5686 26.8682 45.6022 26.8682C48.6357 26.8682 51.1491 29.1217 51.5825 32.0685Z" fill="#333333"/>
<path d="M31.7349 33.802H18.7342V32.9353C18.7342 30.5086 16.8274 28.6017 14.4006 28.6017C11.9737 28.6017 10.067 30.5085 10.067 32.9353V33.802H6.60014C5.1267 33.802 4 32.6753 4 31.2019V21.668H31.7349V33.802ZM20.3809 32.0685H30.0014V23.4014H5.73346V31.2019C5.73346 31.7219 6.08012 32.0685 6.60014 32.0685H8.42025C8.85364 29.1218 11.367 26.8683 14.4006 26.8683C17.4341 26.8683 19.9475 29.1218 20.3809 32.0685Z" fill="#333333"/>
<path d="M16.1336 32.935C16.1336 33.8884 15.3535 34.6685 14.4001 34.6685C13.4467 34.6685 12.6666 33.8884 12.6666 32.935C12.6666 31.9816 13.4467 31.2015 14.4001 31.2015C15.3535 31.2015 16.1336 31.9817 16.1336 32.935Z" fill="#333333"/>
<path d="M47.3359 32.935C47.3359 33.8884 46.5558 34.6685 45.6024 34.6685C44.649 34.6685 43.869 33.8884 43.869 32.935C43.869 31.9816 44.649 31.2015 45.6024 31.2015C46.5558 31.2016 47.3359 31.9817 47.3359 32.935Z" fill="#333333"/>
<path d="M48.8093 14.7341H37.542C36.242 14.7341 35.2019 13.6941 35.2019 12.394V6.93372H40.6622C41.8756 6.93372 42.9157 7.45375 43.6957 8.40717L48.8093 14.7341ZM36.9354 8.66718V12.394C36.9354 12.7407 37.1954 13.0007 37.542 13.0007H45.2558L42.3957 9.44712C41.9623 8.92709 41.3556 8.66708 40.6622 8.66708L36.9354 8.66718Z" fill="#333333"/>
</g>
<defs>
<filter id="filter0_d" x="0" y="0" width="59.9202" height="47.0021" filterUnits="userSpaceOnUse" color-interpolation-filters="sRGB">
<feFlood flood-opacity="0" result="BackgroundImageFix"/>
<feColorMatrix in="SourceAlpha" type="matrix" values="0 0 0 0 0 0 0 0 0 0 0 0 0 0 0 0 0 0 127 0" result="hardAlpha"/>
<feOffset dy="4"/>
<feGaussianBlur stdDeviation="2"/>
<feComposite in2="hardAlpha" operator="out"/>
<feColorMatrix type="matrix" values="0 0 0 0 0 0 0 0 0 0 0 0 0 0 0 0 0 0 0.25 0"/>
<feBlend mode="normal" in2="BackgroundImageFix" result="effect1_dropShadow"/>
<feBlend mode="normal" in="SourceGraphic" in2="effect1_dropShadow" result="shape"/>
</filter>
</defs>
</svg>
